PathFileType	4	(X/Y/Z)	s02c0203.trc
DataRate	CameraRate	NumFrames	NumMarkers	Units	OrigDataRate	OrigDataStartFrame	OrigNumFrames
200	200	4	51	mm	200	500	2000
Frame#	Time	racr			lacr			c7			jug			rlel			rdr			llel			ldr			s2			lic			ric			lasi			rasi			rpsi			lpsi			rgt			lgt			rth1			rth2			rth3			rth4			rlfc			rmfc			rsh1			rsh2			rsh3			rsh4			rlmal			rmmal			rcal			rtoe			rmt5			rmt1			lth1			lth2			lth4			lth3			llfc			lmfc			lsh1			lsh2			lsh3			lsh4			llmal			lmmal			lcal			ltoe			lmt5			SBIKE			LBIKE			RBIKE			
		X1	Y1	Z1	X2	Y2	Z2	X3	Y3	Z3	X4	Y4	Z4	X5	Y5	Z5	X6	Y6	Z6	X7	Y7	Z7	X8	Y8	Z8	X9	Y9	Z9	X10	Y10	Z10	X11	Y11	Z11	X12	Y12	Z12	X13	Y13	Z13	X14	Y14	Z14	X15	Y15	Z15	X16	Y16	Z16	X17	Y17	Z17	X18	Y18	Z18	X19	Y19	Z19	X20	Y20	Z20	X21	Y21	Z21	X22	Y22	Z22	X23	Y23	Z23	X24	Y24	Z24	X25	Y25	Z25	X26	Y26	Z26	X27	Y27	Z27	X28	Y28	Z28	X29	Y29	Z29	X30	Y30	Z30	X31	Y31	Z31	X32	Y32	Z32	X33	Y33	Z33	X34	Y34	Z34	X35	Y35	Z35	X36	Y36	Z36	X37	Y37	Z37	X38	Y38	Z38	X39	Y39	Z39	X40	Y40	Z40	X41	Y41	Z41	X42	Y42	Z42	X43	Y43	Z43	X44	Y44	Z44	X45	Y45	Z45	X46	Y46	Z46	X47	Y47	Z47	X48	Y48	Z48	X49	Y49	Z49	X50	Y50	Z50	X51	Y51	Z51	
500	2.5000	570.858597	1196.205019	-210.324458	497.394641	1194.671571	-524.973842	520.038781	1232.693721	-377.243088	470.461044	1101.947986	-355.294345	538.047374	990.089365	-48.035601	691.244631	877.522509	-124.417668	473.512642	939.001807	-620.923628	672.244370	887.756287	-524.696061	-16.979773	1139.550835	-286.244333	101.954328	1128.240939	-445.922245	114.566744	1106.911232	-149.950185	140.633183	1104.068267	-428.348696	157.519725	1082.026172	-190.886022	7.645780	1167.347659	-244.416286	9.173069	1181.377656	-326.692078	83.328088	1021.172100	-115.770425	59.100105	1054.150224	-476.387134	172.301945	974.296962	-129.622150	250.558626	936.471296	-143.119928	304.947707	871.098794	-129.945927	267.990247	958.586466	-168.937483	375.213458	751.691074	-174.656049	347.161056	739.392897	-281.921486	318.996315	656.556166	-156.076128	271.035397	582.064594	-170.901786	202.240035	535.955606	-159.447697	277.964526	574.703462	-209.947367	103.240812	457.992576	-153.597227	122.782501	468.480183	-236.953275	16.587364	459.925216	-196.663873	235.171586	271.829281	-191.699003	142.396793	329.822862	-138.172141	171.956831	319.677015	-244.649150	175.789241	973.695177	-494.878310	252.533965	932.517779	-492.468034	274.625318	956.214755	-473.375195	297.494069	855.319158	-492.247304	367.970069	783.567413	-471.501518	373.234282	745.557761	-373.118066	367.696814	677.844224	-497.340185	381.291314	593.332159	-483.710418	350.152883	508.224520	-489.079130	398.354467	593.602687	-446.622069	320.774604	401.246003	-478.291083	335.394945	399.129593	-402.505637	265.272077	334.840268	-443.425403	552.770388	364.897324	-448.112297	450.377160	328.802662	-509.819523	-128.918317	869.201192	-313.518971	32.441128	82.486669	-515.204623	32.464661	82.577435	-115.375257	
501	2.5050	570.913801	1197.678915	-209.416755	497.969978	1194.897498	-524.738863	520.583466	1233.720402	-376.773329	470.152657	1103.391496	-354.242397	538.378230	990.447850	-48.079848	691.237216	877.383597	-124.766617	473.219492	939.068252	-620.481918	672.064692	887.741229	-524.550765	-16.576293	1139.495498	-287.043506	102.770302	1127.711994	-446.035236	114.343526	1107.475088	-150.313775	141.893325	1103.123011	-427.928381	157.338291	1082.474375	-190.986430	7.810761	1167.468408	-245.271156	9.757576	1181.050420	-327.640519	83.366529	1021.985178	-115.719030	59.887761	1053.157679	-476.608366	172.333462	975.404905	-130.086362	251.086889	938.569515	-142.729104	306.175799	873.691338	-129.332572	268.331520	960.760260	-168.552819	377.591930	754.693668	-173.826206	349.816165	742.404731	-281.223623	320.603079	659.825107	-155.827358	272.439073	585.622433	-170.690271	203.310208	539.735898	-159.318268	279.296553	578.280680	-209.676307	103.646583	463.026227	-153.757402	123.264138	473.500848	-237.099576	16.948827	465.225287	-196.950753	235.023809	276.677220	-191.670109	142.377968	334.942642	-138.271533	172.001309	324.664953	-244.761334	175.940792	971.645814	-495.059085	252.242365	929.567079	-492.533736	274.588697	953.080842	-473.589857	296.272465	851.822910	-492.148270	366.416568	779.837292	-472.059839	370.551196	741.793373	-373.616328	365.936096	673.795926	-497.382432	380.251678	589.349827	-483.801956	349.714418	504.147838	-489.304345	397.138005	589.750334	-446.669251	321.225119	396.852948	-478.603280	335.592438	394.857284	-402.906741	265.623672	330.861144	-443.830198	553.338454	359.241124	-447.800114	450.817586	323.817807	-509.743077	-128.937153	869.203774	-313.524553	32.451711	82.479022	-515.208935	32.468545	82.593986	-115.390848	
502	2.5100	570.951928	1199.346700	-208.535257	498.513897	1195.212158	-524.489623	521.032019	1234.853601	-376.389527	469.955013	1104.871407	-353.266658	538.744565	990.894404	-48.188299	691.303277	877.295145	-125.077840	472.943174	939.125427	-619.959723	671.857109	887.693245	-524.504542	-16.138870	1139.428515	-287.865033	103.619185	1127.171015	-446.157627	114.092024	1108.082938	-150.686841	143.174097	1102.128876	-427.419345	157.205393	1083.140083	-191.185344	8.023890	1167.601215	-246.081902	10.269774	1180.807220	-328.391804	83.401830	1022.761812	-115.660482	60.724923	1052.226680	-476.842527	172.481476	976.702417	-129.916153	251.609120	940.836869	-141.972019	307.460023	876.337482	-128.685932	268.709894	962.993495	-168.153257	380.037184	757.878901	-172.771155	352.351792	745.463753	-280.461039	322.670416	663.060358	-155.395722	273.872631	589.302246	-170.459509	204.208020	543.551804	-159.002203	281.567641	582.490241	-208.465551	104.251964	468.242473	-153.884661	123.977077	478.632772	-237.219194	17.716387	470.097595	-197.789397	235.047536	281.550876	-191.650444	142.562533	340.122737	-138.341652	172.043356	329.683263	-244.872615	176.122107	969.607112	-495.305990	251.900350	926.661349	-492.648755	274.527830	949.861158	-473.687598	295.075444	848.393479	-492.051383	364.288487	775.861596	-472.097875	367.842078	738.514195	-374.236096	364.175644	669.804341	-497.550250	379.057335	585.375280	-484.087681	349.165575	499.936633	-489.482143	395.853233	585.972927	-446.796640	321.561584	392.595214	-478.871047	335.722185	390.595490	-403.242103	265.842556	327.078451	-444.268103	553.818954	353.371556	-447.510287	451.195092	318.725672	-509.743381	-128.934723	869.197511	-313.457933	32.459624	82.471659	-515.191129	32.448460	82.519368	-115.344491	
503	2.5150	570.953202	1201.119206	-207.528891	498.994129	1195.565553	-524.282967	521.398268	1236.164753	-375.977240	469.665201	1106.533261	-352.299361	539.190649	991.437964	-48.365569	691.411785	877.254230	-125.295068	472.725288	939.261899	-619.380328	671.697608	887.616514	-524.466115	-15.598823	1139.311256	-288.747896	104.501289	1126.617877	-446.289544	113.831429	1108.514990	-151.109896	144.474614	1101.085156	-426.818308	157.060039	1083.738574	-191.346680	8.235357	1167.614352	-246.897893	10.966850	1180.345122	-329.511505	83.459434	1023.568847	-115.688609	61.613965	1051.173768	-477.056214	172.640060	977.939650	-129.742780	252.057550	943.010625	-141.076110	308.785350	879.131854	-128.050757	269.096168	965.168653	-167.734017	382.562255	761.188378	-171.997106	355.253082	748.893579	-279.911029	324.805774	666.363280	-154.958374	275.552740	593.030688	-170.111752	205.079827	547.564376	-158.740253	283.083527	586.251115	-208.265830	104.916050	473.355923	-153.997700	124.683766	483.804651	-237.290077	18.323032	475.538470	-197.902311	235.211492	286.578958	-191.689308	142.881597	345.256943	-138.374737	172.455218	334.767854	-244.865196	176.292849	967.606768	-495.533405	251.559530	923.697104	-492.769378	274.472474	946.765754	-473.918710	293.847998	845.008494	-492.111730	362.309795	771.800038	-472.157947	365.115622	735.797833	-374.981649	362.305813	665.851594	-497.715453	377.859290	581.461667	-484.283349	348.526519	495.933559	-489.838416	394.583894	582.199245	-446.987225	321.878249	388.313238	-479.239555	335.784533	386.347503	-403.520268	265.986470	323.315825	-444.727622	554.261274	347.511885	-447.302584	451.433403	313.694339	-509.698539	-128.937163	869.216469	-313.461108	32.455264	82.483518	-515.216511	32.480992	82.568009	-115.369782	
